<svg width="117" height="32" viewBox="0 0 117 32" fill="none" xmlns="http://www.w3.org/2000/svg">
<path d="M116.108 20.4808V18.7078C116.108 17.965 115.945 17.2328 115.63 16.5609L112.101 9.03309C111.3 7.32578 109.586 6.23545 107.699 6.23545H100.742C99.7071 6.23545 98.8206 6.97475 98.6344 7.99417L96.3758 20.3691C96.3137 20.7059 96.0212 20.9506 95.679 20.9506C95.2393 20.9506 94.906 20.5552 94.9805 20.1226L97.8756 3.18604C98.0458 2.18435 97.2746 1.26953 96.2587 1.26953H57.159C55.8365 1.26953 54.7656 2.34037 54.7656 3.66296C54.7656 4.98555 55.8365 6.05638 57.159 6.05638H66.5271C67.7362 6.05638 68.6528 7.14495 68.4489 8.33457C68.2894 9.27066 67.4774 9.95678 66.5271 9.95678H60.173C58.8504 9.95678 57.7796 11.0276 57.7796 12.3502C57.7796 13.6728 58.8504 14.7436 60.173 14.7436H65.0432C66.2523 14.7436 67.1689 15.8322 66.965 17.0218L66.4207 20.2024C66.3516 20.6013 66.13 20.9577 65.8037 21.1988C65.5006 21.4204 65.2878 21.775 65.24 22.1881L65.0573 23.805C64.9634 24.6435 65.5786 25.3811 66.3746 25.3811H68.8957C69.3088 25.3811 69.6527 25.069 69.6988 24.6595C70.041 21.5729 72.5514 19.1759 75.5991 19.1759C78.6467 19.1759 81.1553 21.5729 81.4993 24.6595C81.5454 25.069 81.8893 25.3811 82.3024 25.3811H99.7478C100.161 25.3811 100.505 25.069 100.551 24.6595C100.893 21.5729 103.404 19.1759 106.451 19.1759C109.499 19.1759 112.007 21.5729 112.351 24.6595C112.398 25.069 112.741 25.3811 113.155 25.3811H115.491C116.163 25.3811 116.729 24.8492 116.809 24.14L116.991 22.5231C117.05 22.0108 116.84 21.5374 116.489 21.2449C116.259 21.0534 116.114 20.7786 116.114 20.479L116.108 20.4808ZM111 15.2525H101.443C101.14 15.2525 100.911 14.9777 100.966 14.6798L101.852 9.82381C101.895 9.59333 102.095 9.4249 102.329 9.4249H107.552C108.843 9.4249 109.988 10.2475 110.401 11.4708L111.46 14.6124C111.566 14.9262 111.332 15.2525 111 15.2525Z" fill="#1975FF"/>
<path d="M79.6858 26.5327C80.5182 24.0307 79.3288 21.3823 77.0293 20.6173C74.7298 19.8524 72.1909 21.2606 71.3586 23.7626C70.5263 26.2647 71.7157 28.9131 74.0152 29.678C76.3147 30.443 78.8535 29.0348 79.6858 26.5327Z" fill="#1975FF"/>
<path d="M110.514 26.5327C111.346 24.0307 110.157 21.3823 107.857 20.6173C105.558 19.8524 103.019 21.2606 102.187 23.7626C101.354 26.2647 102.544 28.9131 104.843 29.678C107.143 30.443 109.682 29.0348 110.514 26.5327Z" fill="#1975FF"/>
<path d="M50.4218 1.26953H46.1669C44.845 1.26953 43.7734 2.3411 43.7734 3.66296C43.7734 4.98481 44.845 6.05638 46.1669 6.05638H50.4218C51.7437 6.05638 52.8153 4.98481 52.8153 3.66296C52.8153 2.3411 51.7437 1.26953 50.4218 1.26953Z" fill="#1975FF"/>
<path d="M53.4368 9.95703H52.0184C50.6966 9.95703 49.625 11.0286 49.625 12.3505C49.625 13.6723 50.6966 14.7439 52.0184 14.7439H53.4368C54.7586 14.7439 55.8302 13.6723 55.8302 12.3505C55.8302 11.0286 54.7586 9.95703 53.4368 9.95703Z" fill="#1975FF"/>
<path d="M11.2781 2.99418V12.2852H0.980118V2.99418H2.92693V10.7277H5.20939V2.99418H7.04879V10.7277H9.34469V2.99418H11.2781ZM20.248 12.2852H18.3012V8.55265C18.3012 7.28163 18.3951 6.09117 18.5831 4.98126L15.6562 12.2852H13.2395V2.99418H15.1863V6.76696C15.1863 7.51883 15.1594 8.14539 15.1057 8.64664C15.061 9.13893 14.9938 9.68493 14.9043 10.2846L17.8849 2.99418H20.248V12.2852ZM32.2238 7.58596C32.2238 8.91964 31.8389 9.93108 31.0691 10.6203C30.2994 11.3006 29.2297 11.6631 27.8602 11.7078V12.7954H25.9403V11.6944C24.5529 11.6317 23.4788 11.2648 22.718 10.5934C21.9572 9.91318 21.5768 8.92411 21.5768 7.62624C21.5768 6.29256 21.9616 5.28559 22.7314 4.60533C23.5012 3.91611 24.5708 3.54913 25.9403 3.50437V2.4974H27.8602V3.5178C29.2476 3.58046 30.3217 3.95192 31.0826 4.63218C31.8434 5.30349 32.2238 6.28809 32.2238 7.58596ZM27.7797 10.4458C28.63 10.3921 29.2476 10.137 29.6325 9.68046C30.0174 9.22397 30.2098 8.5258 30.2098 7.58596C30.2098 6.66402 30.0129 5.97481 29.6191 5.51832C29.2253 5.06182 28.6121 4.8112 27.7797 4.76644V10.4458ZM23.5907 7.62624C23.5907 8.54818 23.7876 9.23739 24.1814 9.69389C24.5753 10.1504 25.1884 10.401 26.0208 10.4458V4.76644C25.1705 4.82015 24.5529 5.07525 24.168 5.53174C23.7831 5.98823 23.5907 6.6864 23.5907 7.62624ZM39.24 2.99418L39.0251 4.5382H36.6755V12.2852H34.7019V4.5382H32.2314V2.99418H39.24Z" fill="#1975FF"/>
<path d="M3.41027 18.3223C4.86031 18.3223 6.01945 18.6535 6.88768 19.3158C7.76486 19.9693 8.20345 21.1731 8.20345 22.9275C8.20345 24.6461 7.77381 25.8589 6.91453 26.566C6.0642 27.2642 4.9722 27.6133 3.63852 27.6133H0.980118V18.3223H3.41027ZM2.95378 19.7723V26.1632H3.75936C4.52018 26.1632 5.10646 25.9305 5.5182 25.4651C5.93889 24.9907 6.14923 24.1448 6.14923 22.9275C6.14923 22.0861 6.04182 21.4327 5.827 20.9673C5.62113 20.5018 5.34366 20.1886 4.99457 20.0274C4.64549 19.8574 4.22032 19.7723 3.71908 19.7723H2.95378ZM15.2575 18.3223L15.0427 19.7589H11.6861V22.1756H14.613V23.5988H11.6861V26.1632H15.2843V27.6133H9.71244V18.3223H15.2575ZM18.7795 18.3223V26.029H22.4583L22.2435 27.6133H16.8058V18.3223H18.7795ZM25.6106 18.3223V27.6133H23.637V18.3223H25.6106ZM34.3235 18.3223L31.6517 27.6133H29.2484L26.4826 18.3223H28.5905L30.4836 25.9753L32.3096 18.3223H34.3235ZM40.7464 18.3223L40.5316 19.7589H37.175V22.1756H40.102V23.5988H37.175V26.1632H40.7733V27.6133H35.2014V18.3223H40.7464ZM45.2754 23.9748H44.2684V27.6133H42.2947V18.3223H45.1948C46.439 18.3223 47.3744 18.555 48.0009 19.0205C48.6275 19.477 48.9408 20.1707 48.9408 21.1015C48.9408 21.7102 48.7886 22.2114 48.4843 22.6053C48.1889 22.9991 47.7279 23.3348 47.1014 23.6123L49.5047 27.6133H47.2625L45.2754 23.9748ZM44.2684 22.5784H45.3022C45.8303 22.5784 46.2286 22.4621 46.4972 22.2293C46.7657 21.9877 46.9 21.6117 46.9 21.1015C46.9 20.6271 46.7567 20.2825 46.4703 20.0677C46.1928 19.8439 45.7542 19.7321 45.1545 19.7321H44.2684V22.5784ZM57.0366 18.3223L54.056 24.109V27.6133H52.0823V24.1225L49.1017 18.3223H51.2633L53.1161 22.5382L54.9555 18.3223H57.0366Z" fill="#1975FF"/>
</svg>
