<svg width="24" height="24" viewBox="0 0 24 24" fill="none" xmlns="http://www.w3.org/2000/svg">
<path d="M12 20.9985C9.48333 20.9985 7.35417 20.1277 5.6125 18.386C3.87083 16.6443 3 14.5152 3 11.9985C3 9.69849 3.75 7.70266 5.25 6.01099C6.75 4.31932 8.66667 3.33182 11 3.04849C11.2167 3.01516 11.4083 3.04432 11.575 3.13599C11.7417 3.22766 11.875 3.34849 11.975 3.49849C12.075 3.64849 12.1292 3.82349 12.1375 4.02349C12.1458 4.22349 12.0833 4.41516 11.95 4.59849C11.6667 5.03182 11.4542 5.49016 11.3125 5.97349C11.1708 6.45682 11.1 6.96516 11.1 7.49849C11.1 8.99849 11.625 10.2735 12.675 11.3235C13.725 12.3735 15 12.8985 16.5 12.8985C17.0167 12.8985 17.5292 12.8235 18.0375 12.6735C18.5458 12.5235 19 12.3152 19.4 12.0485C19.5833 11.9318 19.7708 11.8777 19.9625 11.886C20.1542 11.8943 20.325 11.9402 20.475 12.0235C20.6417 12.1068 20.7708 12.2318 20.8625 12.3985C20.9542 12.5652 20.9833 12.7652 20.95 12.9985C20.7167 15.2985 19.7375 17.2068 18.0125 18.7235C16.2875 20.2402 14.2833 20.9985 12 20.9985ZM12 18.9985C13.4667 18.9985 14.7833 18.5943 15.95 17.786C17.1167 16.9777 17.9667 15.9235 18.5 14.6235C18.1667 14.7068 17.8333 14.7735 17.5 14.8235C17.1667 14.8735 16.8333 14.8985 16.5 14.8985C14.45 14.8985 12.7042 14.1777 11.2625 12.736C9.82083 11.2943 9.1 9.54849 9.1 7.49849C9.1 7.16516 9.125 6.83182 9.175 6.49849C9.225 6.16516 9.29167 5.83182 9.375 5.49849C8.075 6.03182 7.02083 6.88182 6.2125 8.04849C5.40417 9.21516 5 10.5318 5 11.9985C5 13.9318 5.68333 15.5818 7.05 16.9485C8.41667 18.3152 10.0667 18.9985 12 18.9985Z" fill="#97A1AF"/>
</svg>
